#!OML:ASF H:\BabyWalks\Project 1\Capture day 1\Session 1\baby.ASF
:FULLY-SPECIFIED
:DEGREES
441
root 15.0964 16.7474 0.545407 -182.077 70.5083 -174.468
lowerback 28.5432 1.58136 5.25437
upperback 8.34603 4.67298 1.86228
thorax -6.11403 2.67443 -2.51823
lowerneck 3.75342 -3.1999 8.21101
upperneck -10.1037 -4.95999 -15.3368
head -4.19056 -1.8847 -5.89786
rclavicle 6.95746e-014 -3.97569e-015
rhumerus -49.7702 8.78907 -47.3166
rradius 40.4862
rwrist -0.483616
rhand -15.7463 -25.6401
rfingers 7.12502
rthumb 10.4449 -55.3606
lclavicle 6.95746e-014 -3.97569e-015
lhumerus -47.226 -1.67731 48.5299
lradius 54.3367
lwrist -1.60096
lhand -7.693 4.36295
lfingers 7.12502
lthumb 18.2042 33.5311
rfemur -11.6573 7.03111 26.8493
rtibia 48.5529
rfoot -25.5803 -6.54812
rtoes 0.0406165
lfemur -47.2272 6.09639 -13.6356
ltibia 59.2357
lfoot -10.7525 -30.0009
ltoes -18.6004
442
root 15.2739 16.6699 0.529686 -182.134 71.0735 -174.696
lowerback 28.6324 1.73568 4.9667
upperback 8.48686 4.80863 1.93241
thorax -6.01986 2.74976 -2.32031
lowerneck 3.69358 -2.96319 8.51682
upperneck -10.029 -4.62846 -15.4938
head -4.12592 -1.73373 -6.02063
rclavicle 3.45885e-014 -3.18055e-015
rhumerus -47.2438 8.24158 -47.2775
rradius 40.0679
rwrist 0.596763
rhand -17.8576 -26.8221
rfingers 7.12502
rthumb 8.40777 -56.6347
lclavicle 3.45885e-014 -3.18055e-015
lhumerus -48.6091 -0.264865 49.6434
lradius 52.389
lwrist -2.41025
lhand -7.38599 4.08536
lfingers 7.12502
lthumb 18.4996 33.2257
rfemur -11.8182 6.67816 26.9255
rtibia 49.9075
rfoot -26.8166 -5.97055
rtoes 0.391844
lfemur -46.4831 5.23406 -14.0571
ltibia 56.5187
lfoot -10.6901 -29.2471
ltoes -18.4699
443
root 15.4509 16.6054 0.516401 -182.587 71.4755 -175.289
lowerback 28.7853 1.83651 4.6066
upperback 8.62365 4.85642 1.94183
thorax -5.96722 2.78195 -2.12475
lowerneck 3.73832 -2.77434 8.74514
upperneck -10.0099 -4.35631 -15.4809
head -4.09728 -1.61313 -6.07053
rclavicle -7.07673e-014 2.06736e-014
rhumerus -44.9417 7.76576 -47.544
rradius 40.0157
rwrist 1.42377
rhand -20.0184 -27.9414
rfingers 7.12502
rthumb 6.32206 -57.827
lclavicle -7.07673e-014 2.06736e-014
lhumerus -49.7409 1.05431 50.7251
lradius 50.2742
lwrist -3.45367
lhand -6.94862 3.73379
lfingers 7.12502
lthumb 18.9202 32.8336
rfemur -11.8015 6.15535 26.8561
rtibia 51.0163
rfoot -27.9518 -5.35762
rtoes 0.753827
lfemur -45.6482 4.23477 -14.585
ltibia 53.8531
lfoot -10.5954 -28.5592
ltoes -18.2245
444
root 15.6275 16.5514 0.504512 -183.079 71.7477 -175.931
lowerback 28.9635 1.89221 4.28931
upperback 8.73658 4.85593 1.91262
thorax -5.94863 2.78893 -1.98311
lowerneck 3.85513 -2.64341 8.89197
upperneck -10.0255 -4.15656 -15.3073
head -4.0958 -1.53038 -6.04948
rclavicle -1.55052e-014 1.59028e-014
rhumerus -42.9494 7.43497 -48.1217
rradius 40.3835
rwrist 1.90804
rhand -22.1687 -28.9133
rfingers 7.12502
rthumb 4.2459 -58.8507
lclavicle -1.55052e-014 1.59028e-014
lhumerus -50.6139 2.24423 51.7682
lradius 48.0782
lwrist -4.80165
lhand -6.35983 3.35058
lfingers 7.12502
lthumb 19.4864 32.3941
rfemur -11.6937 5.52748 26.7591
rtibia 51.9213
rfoot -28.9555 -4.75834
rtoes 1.04387
lfemur -44.8247 3.15836 -15.1109
ltibia 51.3175
lfoot -10.5231 -27.9213
ltoes -17.9113
445
root 15.8034 16.5066 0.492974 -183.332 71.9371 -176.385
lowerback 29.1249 1.91949 4.0882
upperback 8.81316 4.84594 1.86432
thorax -5.95149 2.78877 -1.9256
lowerneck 3.98241 -2.57115 8.95645
upperneck -10.0369 -4.03046 -14.998
head -4.10064 -1.48795 -5.96567
rclavicle 3.33958e-014 -2.38542e-014
rhumerus -41.3166 7.31955 -48.9863
rradius 41.1988
rwrist 2.00257
rhand -24.2275 -29.6551
rfingers 7.12502
rthumb 2.25764 -59.6229
lclavicle 3.33958e-014 -2.38542e-014
lhumerus -51.2608 3.28237 52.7715
lradius 45.9302
lwrist -6.50047
lhand -5.6096 2.91586
lfingers 7.12502
lthumb 20.2076 31.8848
rfemur -11.5759 4.87785 26.7216
rtibia 52.6592
rfoot -29.8041 -4.21938
rtoes 1.21176
lfemur -44.1054 2.05524 -15.5524
ltibia 48.9865
lfoot -10.5283 -27.2981
ltoes -17.5792
